<svg xmlns="http://www.w3.org/2000/svg" width="256" height="256">
	<style>.B{fill:none}.C{stroke-opacity:NaN}.D{stroke-width:.5}.E{stroke:#534741}.F{stroke:#c1272d}.G{stroke-miterlimit:10}.H{stroke-linejoin:round}.I{stroke-width:null}</style>
	<path d="m45.373 22.123-.123.002c3.625 7.042 2.25 20.208 2.25 20.208l4.333 3h-4.667l2.667 3L47 49.666l2.333 2-2 .167-1.833 10L60.833 67l-15.333.333-.833 10.167 3 1.333-2 1.167.833 5.833 2.333 1.833-2.667 1.167-1.5 13.5 1.667 1.333-1.667 1.167 3 2.333-3 .167L48 110.5l-2.167 2.333 1.5 7 3 2-3.167 2.5-1.333 4.5 11.5 2-11.5 4.667v13.167l2.667 6.167-2.667-.834v13.167l1 .333-1 2.667v4.333L52 180.834l-6.167.166L47 189l2.167 1.834-3.333 2v4.333l3.667 2.667-3.667 1.833L47 211l11.833 3.167-13 2.5v9l4.833.667L45.833 228l5.5 1.167L50.5 233l10.5-1.666 2.5-1 1.167 2.166 2.5-2.833 8 .667L83 223.167l.833 9.333 7.833-3.166 3.5 5 2.333-2.5 2.667 2.5 1-3.167 3 2.167 1.667-2.5L117.167 233l9.167-18.666V233l2.5-2.333L130 233l1.167-1.833 5.333 2.333 1.667-3 2.333 3.5 7.167 1.167 2.5-3 1 2.167h4.666l9.167-.667-3.5-9 8.5 9h5.167l1.166-1.5 1.5.667V230l2.667 3.667 1.167-2.333 1.333 1.5h3.333l1.5-1.834 1.167 1.834h3.833l4-8 6.334 7.333s2.924-.121 6.351-.121c3.821 0 8.269.15 9.982.788-2.375-3.084-3.5-14.667-3.5-14.667l-1.833-1.333L216.5 213l-2.333-4.333L217.5 208l1.167-6.166-2.334-3 1.167-1.667.417-.417 1.583-1.583-3.167-.833 3.167-1.834-1-3.5-11-3.666 11-5.5v-12.5l-2.333-1 2.333-2-2-1.5h2l-.667-2.167-2.166-1 2.166-2v-9.5l-2.166-1.833h.666l-.666-10-1.834-1.667 1.334-1 1.833-9.834L204.833 120 216 116.167 213.583 108h1.75l-1.75-2 3.25-1-1.5-2 1-3-1.166-3.333L216.5 95l.5-4.5-2.333-2 2.166-.833L217 81.5l-.833-8-2.584-1.333 2.417-1 .5-3.5-7.167-2.167 6.834-4.667.833-3.334h-3.667l2.5-1.833-.833-1 1.833-2.333-.5-5.167-6.166-1 7.666-1.167V32.833h-2.166l2.166-3.5c-.552-3.272-3.381-4.344-5.767-4.344a7.48 7.48 0 0 0-.399.01l-1.5 2.5-1.334-3.333-3 3-2-1.833-4 2.167-12.458-2.374-4.042 7.708-2.666-8.5-3.834 1.333-.666-2-4.667 1.667-6.167-2.5-9.5 2.833-6.666-1-.667 9.667-5.75-9.583-9.917 4.916.167-3.5-4 2-3.667-1.667-3-1-9.833.5-1 5-3.5-5.667-13.167 2.5-.167-3.333-5.166-.167-6.333 6.833-.667-7-1.833 4.333-2-3.333-2 1.167-1-1.667-5.667 11V24.499l-7.333-1L60 26.166l.833-2.5-4.5 3.333L56 23.833l-5.667.333s-2.846-2.043-4.96-2.043z" stroke="#000" fill="#998675" class="G H"/>
	<path d="m165.182 26.008 6.251 2.534 2.856-1.02.658 1.976 3.783-1.316 1.74 5.548 2.163 6.896 3.356-6.4 3.009-5.737 11.322 2.158 3.061-1.657 2.541 2.33 1.815-1.814 1.891 4.724 3.656-6.095c.561.153.979.429 1.251.826l-4.254 6.874h4.551v6.588l-23.988 3.65 22.725 3.685.162 1.668-2.59 3.296.344.413-7.315 5.365h7.165l-8.871 6.058 9.724 2.939-5.727 2.37 6.89 3.556.538 10.163-.299.114-4.693 1.805 4.946 4.24-.229 2.06-1.827 2.285 1.376 3.933-1.103 3.306-3.782 1.164 1.72 1.966 2.31 7.804-17.07 5.859 18.326 5.774-1.53 6.371-2.905 2.178 3.626 3.296.373 5.594h-5.649l7.355 6.225v6.795l-3.77 3.48H207.5l6.208 4.656-3.152 2.702 4.944 2.12v8.667l-15.82 7.91 16.025 5.341-7.172 4.153 5.533 1.456-1.461 2.088 2.862 3.68-.539 2.848-5.324 1.065 3.439 6.389-2.876 4.726 2.989 2.174c.263 2.306.782 6.057 1.661 9.358-1.403-.075-9.121-.081-10.318-.047l-8.338-9.652-5.516 10.366-2.51-3.944-2.626 3.211-1.163.733-3.382-3.805-.941 1.883-5.191-7.138v8.435l-1.134 1.458h-2.406l-7.612-8.06-10.541-11.162 5.564 14.309 2.028 5.216-5.009.364h-2.637l-2.186-4.734-4.442 5.331-4.188-.682-4.337-6.507-2.731 4.916-4.506-1.971-.976-1.952-.389.361V201.42l-13.851 28.204-11.041-2.11-1.043 1.564-3.842-2.775-.815 2.582-1.383-1.296-1.855 1.991-2.745-3.922-6.294 2.544-1.013-11.342-11.34 10.375-8.195-.684-.648.734-.395-.732-10.508 2.796.263-1.207 8.887-3.064-14.68-2.025v-3.907l23.394-4.499-22.501-6.022-.653-5.223 6.182-3.091-6.422-4.671 5.469-4.389-4.498-3.808-.516-3.535 9.638-.26-10.094-10.367 1.902-7.644-1.902-.634v-6.922l5.018 1.569-5.018-11.605V137.52l19.337-7.848-18.398-3.575 5.662-4.469-5.423-3.616-.918-4.282 2.676-3.788 4.063-.226-6.116-4.756 1.62-1.134-3.506-2.804 1.126-10.135 5.673-2.481-5.33-4.188-.378-2.644 5.318-3.103-6.409-2.848.438-5.35 29.756-.646-29.106-9.808.951-5.187 6.867-.572-4.264-3.654 2.269-1.067-.894-1.006h7.59l-7.896-5.467-2.916-2.018c.174-2.806.333-8.419-.647-13.656l3.338-.196.583 5.539 1.082-.801-1.848 5.543 8.988-8.99 1.614-1.614 3.267.445v20.923l5.667-11 4.952-7.79 2.795 4.659.401 4.208 4.552-4.912 5.404-5.83 1.067.607.172 3.44 3.383-.643 11.139-2.115 6.417 10.388 2.035-10.177 6.938-.353 7.14 2.965.697-.349-.166 3.48 4.572-2.267 7.437-3.687 4.326 7.208 4.908 8.18.657-9.517.443-6.424 4.754.426 8.492-2.53" fill="#c7b299"/>
	<g stroke-linecap="round" class="B E G H">
		<path d="m140.369 100.745 3.777 1.708 8.455 2.028 4.68 2.97s-2.008.647-4.777 1.015c-1.553.205-3.762-.287-5.297-.098-2.107.26-3.355 1.215-3.645 1.652-.305.463 1.766 1.127 3.256 2.625.871.873 1.236 2.24 2.09 3.207a30.023 30.023 0 0 0 3.984 3.691s-3.518-1.146-7.094-1.602c-1.199-.154-2.273.666-3.4.436-2.752-.561-4.561-2.195-5.152-1.752-.516.387-.592 2.225.051 4.049.449 1.279 1.834 2.484 2.525 3.826 1.48 2.871 2.381 5.6 2.381 5.6s-3.119-3.465-5.879-5.744c-1.137-.936-1.82-.57-2.818-1.412-1.568-1.324-2.305-2.75-2.762-2.648-.445.098-.918 1.736-.541 3.963.258 1.529 1.559 3.277 2.039 5.055 1.111 4.105 1.604 8.113 1.604 8.113s-2.617-6.604-5.053-11.516c-1.313-2.645-3.104-4.551-3.207-5.236-.291-1.955-1.618-5.795-1.618-5.795M138 103.291s1.047 1.189 2.625 1.287 5.756 1.264 5.756 1.264l-6.219.923c-.778-.097-3.475 1.482-3.475 1.482s1.385 2.478 2.357 2.587 5.004 3.025 5.004 3.025l-7.482-1.021c-.826.049-4.398-1.805-4.398-1.805l-.121 2.971 1.195 4.373s-3.139-2.721-3.09-3.74-2.94-2.018-2.94-2.018m-13.145 8.207-1.157-1.971c-.106-.18.137-.613 0-.795-.49-.65-1.646-1.031-2.415-1.721-.688-.617-.979-1.527-1.592-2.314-.409-.527-1.235-.645-1.782-1.125-1.063-.932-1.877-2.205-2.184-3.307-.462-1.671.405-2.352.795-3.144.272-.556.392-1.417.727-1.735.756-.723 1.721-.48 1.721-.48M78.012 87.959s-1.076.738-2.294 3.198c-.697 1.41-1.819 3.165-1.853 6.229-.029 2.777 1.803 4.534 3.849 7.328.467.637 1.233 1.329 1.664 2.1.926 1.656 2.253 3.066 3.529 4.543.461.533 1.307.986 1.573 1.588.596 1.344.592 2.846.764 4.057a65.85 65.85 0 0 1 .441 3.824m23.817-44.014c1.923.114 4.431.903 6.715 2.581 1.042.766 2.565 1.455 3.473 2.316 2.337 2.215 3.506 4.531 3.506 4.531l1.025 3.341 2.327.915 1.059.992 1.346.838 2.424 1.037 1.545 1.081.131.662.529.265-.109 1.235.441 1.61v2.315l-1.566-.155-.463-.397s-.705 0-1.344-.065-1.17.309-1.17.309.111-1.037-.573-1.169c-.376-.072-.559.492-.904.86-.285.304-.375.661-.751.617s-.353-.882-.551-.926-.75.299-.75.299l-.265-.851-.617.044-.154-.507-1.478.507-.705-.75-1.545.088-.065-.794-.816-.926-.838.309m12.393-.398c-.154-.562-1.477-1.125-1.477-1.125m-11.114.288h-2.448l-.949-1.037h-1.366l-.331-1.698m-.794.242h-.859c-.089-.507-1.016-1.587-1.588-1.499v-1.743m.529-9.603-2.217-1.224s-.848-2.188-4.068-4.587c-1.515-1.128-4.682-2.373-6.461-3.331-3.629-1.951-7.109-2.576-11.037-2.223.334.178.58.208 1.202.503.101.048.256.284.352.353.396.285.701.589 1.158.981 1.931 1.659 4.845 3.922 7.409 6.252 3.375 3.065 6.093 5.95 6.384 5.954 3.605.044 5.426-2.448 5.426-2.448"/>
		<path d="M106.965 77.066v2.271s-.793 1.477-1.565 1.168m-2.293-4.762c0 .48.132 1.918.132 1.918s-.132.618-.683.573m-2.03-5.336c0 .138-.155.385-.22.507-.222.425-.75 1.213-.64 1.809s-1.772 2.146-1.772 2.146m-.477-5.366c0 .707-1.059 2.337-1.521 2.382m-1.313-4.711-.077.982s-.133 1.104-.838.972m29.442 14.459s-.495-1.355-.972-3.233c-.108-.427.098-.975-.044-1.434-.087-.278-.619-.487-.707-.772-.306-1.005-.065-1.584-.55-2.712-.388-.902-1.17-1.701-1.654-2.625-.399-.761-.53-1.671-1.014-2.403-.374-.566-1.02-.964-1.488-1.478-.929-1.014-1.787-2.072-2.813-2.911-.596-.488-.873-1.097-1.544-1.478.506 1.123.514 2.196.75 3.131.127.501.618.854.815 1.279.09.192-.076.48-.021.661.069.233.467.385.529.596.571 1.928.512 3.075.154 3.639-.315.497-1.047.202-1.544.216h-1.434m-2.568 14.085s-.511.806-.81 1.555-.387 1.439-.646 1.488l-.165 3.705m5.889-3.606-.97.641c-.429.279-1.104.644-1.478 1.08-.404.472-.427 1.41-.64 2.029-.275.798-.684 1.234-.684 1.234l-.221-.529s-.044.529-.276 1.08 0 1.345 0 1.345l.784.133s.794.771 1.168.86m3.938 3.061-.827-.1s-.215-.463-.446-.397-.86-.166-.811-.413.182-.926-.133-1.076-1.752 0-1.752 0m1.025-5.342s.89-.13 1.984-.182c.465-.022 1.085-.215 1.539.066.396.246.899.388 1.322.694.882.64 1.699 1.571 2.498 2.679.126.174.102.388.215.579.354.602.813 1.001 1.191 1.573.276.418.459 1.047.776 1.322 1.86 1.615 1.67.877 4.664 1.322-1.07.068-2.808.201-4.002.016-.698-.107-.99-.527-1.438-.594-.436-.065-.894.082-.894.082m-2.479-2.28h-2.432l-.115-1.423s-.877.248-1.506 1.29c.017-1.075.545-1.787.545-1.787m7.46 5.508-1.075.198s-.075-.431-.247-.897c-.071-.191.106-.486-.149-.607-.337-.159-.76-.283-1.124-.133-.286.118-.521.49-.745.58-.234.095-.529-.066-.529-.066l.281-1.473m4.018 2.2h1.488l.299.396s.444.478.43 1.042c-.016.61-.477 1.313-.116 1.389.694.15 2.133-1.223 2.133-1.223l-.926.231-3.737 1.886c-.166.098-.785.076-1.29.23-.952.289-2.083.734-3.109.496-.145-.033-.391-.506-.811-.877-.326-.287-.794-.42-1.174-.826-.46-.492-.728-1.156-1.34-1.571-.383-.259-1.001-.498-1.422-.777-1.195-.792-2.394-2.167-3.722-3.026-1.29-.834-2.932-1.277-4.151-1.991-.661-.386-1.001-.96-1.571-1.316-.451-.283-1.171-.26-1.571-.496-.597-.353-.785-.906-1.158-1.191-.149-.114-.587.107-.727.033-.427-.225-.48-.595-.48-.595m-9.56-4.814s-1.559.44-2.944 1.918c-.85.906-1.955 2.044-1.654 4.168.123.864-.304 2.531-.004 3.374.733 2.068 2.256 3.485 3.18 5.689.985 2.352 3.62 4.383 4.531 6.385.453.996.847 2.072.992 2.91l.762 3.473m1.057-44.555s-.811-.186-1.885.139-2.416 1.162-3.737 1.683c-1.392.547-2.529 1.581-3.441 1.717-.938.141-1.862.879-2.812 1.39l-3.274 1.787m-3.243 4.398s-.472.513-1.554.761l-1.724.316c-.913.167-1.693.368-1.717.776a6.467 6.467 0 0 1 1.44.191c.516.127.557.355.875.503.382.178.992.265.992.265s-3.712 2.473-5.26 4.4c-.519.646-.679 1.951-.529 2.117.205.227 1.057-.384 1.601-.507a10.996 10.996 0 0 1 1.939-.254s-.827 1.952-.96 2.646.431 1.257.431 1.257l1.29-1.125s-.463 1.059-.198 1.72c.056.141.249.01.518.264l2.992 2.718"/>
		<path d="M123.726 109.439h-2.823l.046-1.262-1.605-.039-1.042-1.016c-.466-.48-.727-1.103-.976-.992-.551.243-.635.313-.899-.066s.067-.767-.33-.912m-8.514-7.092 1.699.176m1.279-22.692s-.511-.918-.751-1.168c-.19-.201-.73-.425-.907-.64-.145-.177-.23-.656-.371-.837-.224-.288-.918-.62-1.146-.904-.149-.186-.299-.653-.42-.86-.221-.384-.677-1.158-.991-1.47-.217-.214-.811-.445-1.015-.671-.222-.244-.395-.923-.617-1.167-.229-.25-.855-.561-1.104-.793-.196-.185-.749-.55-.97-.706-.272-.191-.717-.357-.971-.573-.229-.195-.788-.772-1.015-.97-.187-.164-.253-.352-.484-.441-.42-.163-1.338-.958-1.676-.662-.172.15.106.685.221.882.149.261.291.627.506.838.271.263.639.572.613.948-.012.165.866.366.843.529-.114.772.857 1.701.992 2.47.048.272.314.849.332 1.125.023.396.374.761.374 1.158m-9.273 1.707-.804-.441-2.272-.419-1.146-.849-3.451-.838-1.026-.145-3.01.178s.593-.041 1.092.231c.283.155.345.538.705.761 2.243 1.389 5.761 3.718 3.859 4.863m-2.249.254-6.33-1.014c-.528-.199-2.999.143-2.999.143l.177 1.314c.088.329 1.124 1.52 1.124 1.52m22.516 6.924s-8.38-2.028-10.718-2.315c-.97-.119-5.759-.489-8.953.154-.469.095-.992-.048-1.434.088-.34.105-.597.498-.955.551-.823.124-1.778.265-2.374.508-2.037.83-3.198 1.808-3.198 1.808s1.933-.001 4.235.265l6.924 1.08c2.008.279 4.241.185 6.13.662 1.643.416 3.415 2.322 4.918 3.374 1.405.983 2.593 1.132 2.757 1.059.417-.188.56-1.251.992-2.492.158-.453.627-.455.794-.926.265-.753.099-1.779.242-2.47.183-.883.64-1.346.64-1.346zm-19.251-1.345s.309 1.94-.132 2.183m3.352-2.337s.087 2.536-.332 2.69"/>
		<path d="M86.546 83.528s-.067.667 0 1.39c.081.88.279 1.864 0 2.095m5.138-2.978s.331 2.712-.132 2.977m3.991-1.489s-.253 1.813-.221 3.253c.021.88.455 1.62.221 1.72m107.433 37.629c.225-.609-.484-1.088-1.383-1.877-.279-.246-.836-.719-1.25-.932-.559-.287-.984-.309-1.348-.615-.566-.479-1.549-.949-2.4-1.512s-2.215-1.887-2.215-1.887l-3.463-1.424-3.266-1.49s-1.488-1.33-3.223-2.258c-1.563-.836-3.389-1.27-3.42-1.424-.041-.201-1.133-.234-2.193-.418-.676-.117-1.18-.459-1.906-.416-.518.029-1.518.219-2.807.395-.965.131-2.139.197-3.135.504-.877.27-1.492.854-2.191 1.184-1.275.602-2.346.92-2.346.92s-.885.725-2.127 1.426c-.805.453-1.84.762-2.609 1.314-1.209.873-2.66 1.32-2.762 1.295-.264-.066-2.828 1.271-2.828 1.271l3.662.219s-2.598.344-4.867 1.578c-2.377 1.293-3.867 2.564-3.771 2.988m0 1.65c.908.419 1.031.318 2.236.142s2.893-2.367 2.893-2.367c-.078 1.113-.744.668-1.029 1.535-.207.625-.412 1.458.064 1.578.445.111 1.303-.539 2.281-.701 1.531-.257 3.244-.121 3.244-.121s-.92 1.171-.066 1.544 2.479-.943 2.479-.943l1.271.285 1.939-.674s.43.32.559.85c.094.381-.137 1.002 0 1.074s.598-.473 1.184-.525c.875-.08 1.941.295 1.941.295l1.775-.986 1.443-.113s.973.559 2.107.705c.543.07 1.342-.113 1.678-.195.658-.166.869-1.275 2.203-1.021.773.15.619-.363 2.166.602 1.773 1.105 3.391.779 3.391.779l.461-.789-.525-1.25s1.191 1.066 2.498 1.48c.473.15 1.025-.254 1.547-.197.555.063 1.08.582 1.611.561.744-.031 1.139-.459.756-1.053-.201-.314-.998-.669-1.25-1.052-.178-.271.162-.682 0-.953-.57-.959-1.512-1.678-1.512-1.678s1.299.678 2.334 1.711c.258.256-.143.957.164 1.182.742.546 1.725.529 2.598.888.643.264.896.461 1.611.395.428-.039 1.379-.316 1.678-.328.92-.037 1.184.498 1.414-.779 1.512-.756 2.57.73 4.047.359m-36.131-9.568s-.779 1.492-2.443 3.016c-.9.822-2.42 1.461-3.42 2.268-1.703 1.375-2.76 2.791-2.949 3.201m13.768-9.757s-1.602 1.23-3.322 3.201c-.803.92-1.18 2.227-1.906 3.223-1.115 1.527-2.439 2.662-2.576 3.201m14.862-9.932s.199.561.865 1.578c.533.813 1.623 1.936 2.336 3.277.668 1.256.961 2.701 1.424 4.33m-29.287 2.479s.682 1.262.635 2.435c-.037.903-.846 1.731-.635 2.036.277.406-.217 1.789-.439 3.094-.164.953.068 1.885-.395 2.256-.396.318-.682 1.777-.68 3.354.002.791-.217 1.795-.459 2.543s-.449 1.461-.439 2.129c.016 1.01.354 1.461.57 1.664.51.482-.064 1.48-.023 2.281.025.439.914.725.682 1.051-.426.596 1.627.967 3.287 1.492l4.166 1.336m1.621-.155s-.367-1.496-.262-3.506c.035-.688-.045-1.441-.02-2.215.035-1.102.416-2.289.502-3.354.072-.908-.092-1.84.066-2.566.227-1.047.785-1.75.832-2.059.088-.588.594-1.412 1.008-2.281.301-.631.818-.568 1.229-.943.418-.381.014-1.977.68-1.621.41.219 1.059.484 1.688.461.469-.02.928-.365 1.271-.133.91.611 1.904 3.174 2.521 3.945.533.668 1.018 1.121.92 2.084-.027.285-.236.73-.174 1.029.121.596.58 1.059.547 1.646-.043.793-.65 1.527-.592 2.322.055.738.707 1.488.789 2.215.086.75-.4 1.477-.553 2.215-.631 3.068-.5 3.879.553 4.844m1.667.305c.426.082 1.832-.305 3.508-.35 1.941-.053 4.168.205 4.449-.219.27-.404 2.547-.068 3.729-.066 1.125.002 2.354-.143 2.916-.174.688-.039 1.785.023 2.805-.264.732-.209 1.475-.803 1.754-.789.164.008.729-.385 1.514-.506l3.793-.459c.934-.473 1.51-1.164 1.709-2.148.195-.959-.258-3.99-.307-4.625-.053-.668.504-1.863.525-2.74.021-.943-.482-4.078-.57-4.209s-.512-1.475-.24-2.105c.225-.525-.189-2.893-.197-3.201-.018-.611.371-1.785.395-2.717.021-.876.131-1.918-.395-1.881s.264-1.232.264-1.232"/>
	</g>
	<g class="I B C E">
		<path d="M76.895 45.37c-1.479 3.327-1.479 3.512-2.588 5.176l-.739.739"/>
		<path d="m75.231 48.018.185 6.285-.185 4.806v.739l.555-1.109m3.696-13.466c-1.479 3.327-1.479 3.512-2.403 4.436l-.37.555-.185.185.739-.555M78.189 48.817l3.697-1.479c.131-.131.424.131.555 0s.185-.185.37-.185h.37s0-.185.185-.185.239-.054.37-.185.185 0 .37 0 .185-.185.37-.185.239.131.37 0 .185-.185.37-.185.37.185.37 0-.185.185-.185.37v.37c-.185 0-.239.054-.37.185s-.054.239-.185.37l-.185.185s-.114.199-.185.37c-.1.242-.185.37-.37.37 0 0 0 .185-.185.185 0 0-.185 0-.185-.185h-.185m-1.85-.706c.739 3.697.831 3.884.739 5.545-.093 1.671-.37 3.327-.555 4.991l-.185.924v.555l-3.142-1.109m2.034-7.294c-1.479 3.512-1.479 3.697-2.218 4.621v-.185l-.185-.37m5.545-3.888 1.848 4.436.555.555-.555-.185-.185-.555m5.731-2.773 3.697-2.033c.171-.071.199-.114.37-.185.242-.1.37-.37.37-.37s.128-.085.37-.185c.171-.071.185-.185.37-.185l.185-.185c.131-.131.185-.185.37-.185s.185-.185.185-.185c.185 0 .199-.114.37-.185.242-.1.37-.185.37-.37 0 0 .199.071.37 0a.56.56 0 0 0 .37-.37c.1-.242.313-.27.555-.37.171-.071.239.131.37 0s.239-.054.37-.185l.185-.185.37-.37c.131-.131.37 0 .37 0 .185 0 .384-.114.555-.185.242-.1.185-.185.37-.185s.424-.131.555 0 .008.185 0 .37c-.093 2.04-.924 4.436-1.848 6.654l-.37.555v.185l-.924-.37"/>
		<path d="m98.891 46.171-.185 5.176-.185 1.109v.37h-.739m-4.067-4.027.37 4.067s-.185 0-.185.185v1.295c0 .185-.185.37-.185.555V57.491c0 .185.054.239.185.37l.185.185c.131.131 0 .37 0 .37 0 .185.054.239.185.37s.424-.131.555 0-.131.239 0 .37.239.054.37.185.239.054.37.185.37 0 .555 0H99.08c.185 0 .128-.085.37-.185.171-.071.37 0 .555 0h.37c.185 0 .37-.185.37-.185h.555c.185 0 .185-.185.37-.185h.555s0-.185.185-.185h1.295v-1.109h-.185l-.185-.185v-.185m8.125-8.878 4.067-1.109c.242-.1.37-.185.37-.185.185 0 .384.071.555 0 .242-.1.185-.185.37-.185s.37-.185.555-.185c0 0 .185-.185.37-.185s.37 0 .37-.185h.74c.185 0 .37-.185.555-.185h.37c.185 0 .185-.185.37-.185h.37c.185 0 .185-.185.37-.185s.239.131.37 0 .185-.185.37-.185.37.185.37 0-.37 0-.555 0h-.37l-.555.185-.37.185m-1.483 1.664-1.479 3.697c-.131.131 0 .185-.185.37l-.37.37c-.131.131 0 .185 0 .185-.185.185-.424.239-.555.37s-.185.37-.185.37c-.185.185-.199.299-.37.37-.242.1-.185.37-.185.37-.185.185-.114.199-.185.37a.64.64 0 0 1-.555.37s-.185 0-.185.185c0 0 0 .185-.185.185s-.239.054-.37.185l-.185.185s-.128.27-.37.37c-.171.071-.239.054-.37.185l-.185.185c-.185 0-.239.316-.37.185s.185-.185.185-.37v-.555h.185"/>
		<path d="m115.527 49.723.555 4.067v1.665c0 .185-.131.424 0 .555s.185.185.185.37v4.995h-.185l-.185-.185h.185m.554-8.14 3.512 1.664.185.185c.131.131.424-.131.555 0l.185.185c0 .185.185.185.37.185s.185.185.37.185c0 0 .014.114.185.185.242.1.239.239.37.37s.185 0 .185 0c.185 0 .239.054.37.185s.37 0 .37.185c0 0 .185.37.185.185s-.185-.185-.185-.37v-.37h-.185m7.761-6.101 3.697-1.479h.37c.185 0 0 0-.185-.185h-.37"/>
		<path d="m132.348 46.026.555 4.067v1.85c0 .185.085.313.185.555.071.171 0 .185 0 .37s-.185.37-.185.555l.185.185c.131.131.131.424 0 .555s-.185 0-.185.185v.555-.74m-.925-4.255-1.294 3.882v.37s-.185 0-.185.185-.37.37-.185.37.131-.424 0-.555-.185-.185 0-.185v-.185l.185-.185m3.327-3.513c.185 0 .239.239.37.37s.185.185.185.37v.37c.185.185.454.313.555.555.071.171.185.185.37.37s.185.37.37.37v.185m.923-5.917-.185 4.067v1.85l-.185.185c-.131.131-.131.424 0 .555s.185.185.185.37v.37c0 .185-.054.239-.185.37s0 .37 0 .37c0 .185 0 0 0 0v-1.294l.185-.185"/>
		<path d="m136.044 47.505 4.067-1.294c.185 0 .185-.185.185 0 0 0-.131.239 0 .37l.185.185c-.185.185-.185.37-.185.555v4.995c0 .185 0 .37.185.37 0 0 .131.239 0 .37s-.185.185-.185.37v.74c0 .185-.185.555 0 .555s0-.185-.185-.185h-.185l-.185.185h-.185m-3.142-4.998h.185c.185 0 .384.071.555 0 .242-.1.37-.37.555-.37h.37c.185 0 .384.071.555 0 .242-.1.185-.37.37-.37h.925v-.185m-3.515 3.513h.925s.185-.185.37-.185h.925c.185 0 .185 0 .555-.185h.185m-2.775 2.957h1.665c.185 0 .555-.185.555-.185h.739m-9.244 1.664c-.185.37-.185.555-.37.739v.74l-.185.37v.185m2.404-1.479 1.479 3.512c0 .185.054.239.185.37s.37 0 .37 0c.185 0 .185.185.185.185 0 .185.239.054.37.185s.185.185.37.185c0 0 0 .185.185.185h1.295s.185.185.37.185H139.562c.185 0 .239-.054.37-.185s.37 0 .37 0h.74c.185 0 .131-.054 0-.185s.071-.199 0-.37c-.1-.242-.299-.199-.37-.37-.1-.242-.37-.37-.37-.555v-.739"/>
		<path d="M135.675 57.486c.185-.185.114-.171.185 0 .1.242.37.37.37.37.185 0 .27.128.37.37.071.171 0 .37.185.37h.185v.185l.185.185m3.88-1.85c0-.185.128-.1.37 0 .171.071.37 0 .37 0 0 .185.239.054.37.185s.054.424.185.555l.185.185c.131.131.37.185.37.37h.37v.185"/>
	</g>
	<g stroke-width="2" class="F B C">
		<path d="m160.998 44.917 1.664 3.697v-.185c0-.185-.185-.185-.185-.185h-.37m-5.915 2.773 3.882-.924c.131-.131.185 0 .185 0 .185 0 .424.131.555 0l.185-.185c0-.185.185-.185.37-.185s.185-.185.37-.185c0 0 .239.131.37 0s.185-.185.37-.185h.37c.185 0 .37-.185.37-.185.185 0 .37-.185.555-.185s.054-.054.185-.185.384.071.555 0c.242-.1.185-.185.37-.185s.424.131.555 0 .199-.114.37-.185c.242-.1.37-.185.37-.185 0-.185.185-.185.37-.185s.185-.185.37-.185h.74l-.924.37m-1.67 1.11-1.109 4.067c0 .185 0 .37-.185.37 0 0 .131.239 0 .37s-.054.239-.185.37-.114.014-.185.185c-.1.242-.185.37-.185.555 0 0 .131.054 0 .185s-.054.239-.185.37-.185.185-.37.185c0 0-.185.185-.185.37s0 .37-.185.37c0 0-.27.128-.37.37-.071.171-.185.185-.185.37 0 0-.114.199-.185.37-.1.242-.424.239-.555.37s-.054.239-.185.37-.054.239-.185.37-.239.054-.37.185.131.239 0 .37-.185.185-.185 0v-.185l.185-.185v-.185"/>
		<path d="m159.889 51.386 2.588 3.142v.185c0 .185.054.239.185.37l.185.185c.131.131.054.424.185.555l.185.185.185.185c.131.131.054.239.185.37s.185.185.37.185c0 0-.131.054 0 .185s.239.054.37.185.054.239.185.37.185 0 .185 0c0 .185.128.27.37.37.171.071.239.054.37.185l.185.185c.185 0 .185.185.37.185s.185.185.185.185c0 .185.239.054.37.185s.185.185.37.185h.185c.185 0 .185.185.37.185s.185.185 0 .185h-.185l-.37-.37m-14.052-12.572c.185 0 .384-.071.555 0 .242.1.185.37.185.555s.185.185.185.185c.185.185.424.239.555.37s0 .185.185.37m-4.622 6.283 3.142-2.403.185-.185c.185 0 .185 0 .185.185v.925c0 .185.185.185.185.37 0 0-.185.185-.185.37v.925c0 .185-.054.054-.185.185s0 .37 0 .555.131.239 0 .37-.185.185-.185.37.131.239 0 .37-.131.316 0 .185.054-.239.185-.37.37 0 .37 0h.37c.185 0 .185-.185.37-.185 0 0 .185-.185.37-.185s.185-.185.37-.185c0 0 .239.131.37 0s.185-.185.37-.185v2.22s-.085.128-.185.37c-.071.171-.054.239-.185.37-.261.261-.054.424-.185.555s-.085.128-.185.37c-.071.171 0 .37 0 .555 0 0-.085.128-.185.37-.141.342-.185.37-.185.555s-.114.199-.185.37c-.1.242-.114.199-.185.37-.1.242-.054.424-.185.555s-.239-.131-.37 0-.185.185-.185.37c0 0-.054.316-.185.185s0-.37 0-.555c0 0 .185-.185.185-.37v-.37c0-.185.185-.185.185-.37s.054-.239.185-.37.185 0 .37 0h.74a2.39 2.39 0 0 0 .37.185c.171.071.185.185.37.185 0 0 .014.114.185.185a2.39 2.39 0 0 1 .37.185c.185 0 .054.054.185.185s.313.085.555.185c.171.071.128.085.37.185.171.071.424-.131.555 0s.185.185.37.185h.37c.185 0 .185.185.37.185s.185.185.37.185a2.39 2.39 0 0 0 .37.185c.171.071.37 0 .37 0 0 .185.185.185.37.185h3.327l3.882-.185.37-.185-.555.185m6.463-17.015 4.628-1.109.22-.185c0-.185.22-.185.441-.185h.441s0-.185.22-.185.441-.185.661-.185c0 0 0-.185.22-.185s.505.131.661 0 .22-.185.441-.185h.441s0-.185.22-.185.441-.185.661-.185c0 0 0-.185.22-.185s.285-.054.441-.185.22 0 .441 0 .441 0 .661-.185c0 0 .22-.185.441-.185s.441-.185.441-.185c.22 0 .22-.185.441-.185h.441a.82.82 0 0 0 .441 0c.288-.1.441-.185 1.322-.37l-2.204.924m-8.594 5.733c.22 3.697 0 4.067.22 4.067s0-.37 0-.555v-.925s-.22 0-.22-.185-.22-.185-.22-.37-.22-.185-.22-.185c0-.185-.376-.239-.22-.37s.285-.054.441-.185l.22-.185c0-.185.22-.185.22-.37 0 0 0-.185.22-.185s.285-.054.441-.185.22 0 .441 0h.441c.22 0 .065-.054.22-.185s.285-.054.441-.185.441 0 .441 0c.22-.185.441-.185.661-.185s.22-.185.22-.185h.661c.22 0 .065-.054.22-.185s.505.131.661 0l.22-.185c0-.185.22-.185.441-.185s.22-.185.441-.185h.22c.22 0 .285-.054.441-.185s.285-.131.441 0 0 .185 0 .37-.22.185-.22.37v.37c0 .185.156.424 0 .555s-.22 0-.22.185-.22.185-.22.37-.136.199-.22.37c-.119.242-.22.37-.22.555 0 0 .156.054 0 .185s-.322.128-.441.37c-.084.171-.22.185-.22.185-.22.185-.065.424-.22.555s-.22.185-.441.185c0 0-.22 0-.441.185 0 0 0 .185-.22.185s-.441.185-.661.185l-.22.185c-.156.131-.441 0-.661 0h-.441s-.441-.185-.441 0 .458.071.661 0c.288-.1.065-.239.22-.37s.505.131.661 0l.22-.185c.22 0 .285-.054.441-.185s.441 0 .22 0-.441.185-.661.185m-7.054 4.252 4.628-.185c.156-.131.441 0 .661 0 0 0 0-.185.22-.185s.285-.054.441-.185.285.131.441 0 .22-.185.441-.185h.22c.22 0 .373-.085.661-.185.204-.071.153-.085.441-.185.204-.071.441 0 .661-.185 0 0 .153-.085.441-.185a.82.82 0 0 1 .441 0s.153-.085.441-.185c.204-.071.441-.185.441-.185.22 0 .22-.185.441-.185s.22-.185.441-.185h.881v.37c0 .185.22.185.22.37v1.665c0 .185-.065.239-.22.37s0 .185 0 .37v1.295s-.22.185-.22.37v.37c-.22 0-.22.185-.22.37s-.22.185-.22.37c0 0-.101.128-.22.37a.5.5 0 0 0 0 .37c0 .185-.065.239-.22.37s-.065.239-.22.37-.065.239-.22.37 0 .37-.22.37v-.185h-.661"/>
		<path d="m174.563 59.704 4.628-.555c.22 0 .285-.054.441-.185s.22 0 .441 0 .285-.054.441-.185.22 0 .441 0a.82.82 0 0 0 .441 0c.288-.1.182-.275.661-.37.214-.042.285-.054.441-.185s.285-.054.441-.185.441 0 .441 0c.22 0 .458-.114.661-.185.288-.1.153-.27.441-.37.204-.071.441-.185.661-.185 0 0 .285.131.441 0l.441-.37.22-.185c.156-.131.505.131.661 0s.22-.185.441-.185c0 0 .285.131.441 0l.22-.185c.156-.131 1.543-.555 2.424-.555l.882-.185-1.763.924m-13.005 7.213 4.849-1.109c.22 0 .065-.054.22-.185s.441 0 .661 0h1.322c.22 0 .597-.054.441-.185l-.441-.37-.22-.185v-.555"/>
		<path d="m179.632 40.85 1.102 3.882s.107.152.22.555c.051.18-.156.239 0 .37s.22.185.22.37-.084.199 0 .37c.119.242.22.37.22.555 0 0-.084.199 0 .37a2.28 2.28 0 0 0 .22.37v1.48s.22.185.22.37v.37c0 .185-.312.478 0 .739.156.131.22.185.22.37v1.11a2.28 2.28 0 0 0 .22.37c.084.171 0 .37 0 .37v.555c0 .185-.084.199 0 .37.119.242.22.37.22.555V57.496c0 .185-.156.424 0 .555s.22.185.22.37V62.86c0 .185-.22.37-.22.37v2.22c0 .185-.22.185-.22.37v.37c-.22 0-.22.185-.22.37v.37c0 .185-.065.239-.22.37s0 .37 0 .37c0 .185.156.424 0 .555l-.22.185v.37c-.22 0-.22-.185-.441-.185h-.441c-.22 0-.22-.185-.441-.185h-.441l-.22-.185c-.156-.131-.505.131-.661 0s0-.37 0-.555v-.739"/>
	</g>
	<g class="E I B C">
		<path d="M68.218 158.854c-1.892 3.327-1.793 3.838-2.733 4.251-.188.083 1.471-.185 4.625-1.109l2.733-1.294 2.102-.739h-.841"/>
		<path d="M70.11 157.521c-.21 3.882.005 4.115-.841 6.654a25.668 25.668 0 0 1-3.784 7.209l-.21.739-.21.185.42-.739"/>
		<path d="m68.428 165.217 3.994-1.479c.21 0 .42-.185.42-.185.21 0 .21-.185.42-.185s.21-.185.42-.185c0 0 .21 0 .21.185s.062.239.21.37-.21.37-.21.555v.925s-.21 0-.21.185v.925c0 .185 0 .37-.21.37 0 0 .08.199 0 .37-.114.242-.21.37-.21.37 0 .185-.21.185-.21.37s0 .37-.21.37v.74s-.21 0-.21.185.064.454-.21.555c-.194.071-.062.239-.21.37s-.21.185-.21.37c0 0 .149.054 0 .185s-.272.054-.42.185-.062.239-.21.37-.21.185-.21.37 0 .37-.21.37c0 0-.13.014-.21.185-.114.242-.272.239-.42.37s0 .185 0 .185c-.21 0-.062.239-.21.37s-.42.185-.631.37v-.555c0-.185 0-.185.21-.37v-.185"/>
		<path d="m68.638 165.957 2.523 3.327c.446 1.117 1.361 1.751 2.312 2.588s1.682.924 2.102 1.109l.21.185-.42-.739m-2.522-15.59h.631c.21 0 .566.27.841.37.194.071.631.185.841.37l.21.185m8.368 1.108c-.555 3.697-.555 3.697-1.294 5.36l-.185.37.37-.924m1.294-2.262 3.882-.924c.131-.131.37 0 .555 0h.185c.185 0 .424.131.555 0s.185-.185.37-.185h.37c.185 0 .185-.185.37-.185h.37c.185 0 .239-.054.37-.185s.37 0 .37 0c.185 0 .555.185.555 0s-.185-.185-.37-.185-.37.185-.555.37l-.555.555m-5.918 7.024 3.882-.924c0-.185.185-.185.37-.185s.239-.054.37-.185.37 0 .555 0h1.295H90.39l-.185.185"/>
		<path d="M86.507 157.163c1.109 3.697 1.391 3.866 1.479 7.948l-.185 7.209v.739l-.739.185"/>
		<path d="m81.331 173.685 4.067-.185c.185 0 .185-.185.37-.185h.37c0-.185.185-.185.37-.185h.37c.185-.185.37-.185.555-.185H90.578l.185-.185c.131-.131.37 0 .555 0h2.774l.185.185h-.185m7.274-11.725 3.858-1.109c.193 0 .386-.185.579-.185h.386c.193 0 .386-.185.579-.185l.193-.185c.136-.131.386 0 .579-.185 0 0 .249.131.386 0s.193-.185.386-.185h.386c.193 0 .386 0 .386-.185h.386c.193 0 .193-.185.386-.185 0 0 .136-.054 0-.185-.273-.261-.772 0-1.157 0l-.386.185h-.193"/>
		<path d="m105.995 155.675-1.35 6.839c-.476 1.875-1.929 4.251-2.893 5.176l-1.157.739-.386.185-.579-.37"/>
		<path d="m101.173 165.067.772 5.545.193 2.957v.74l-.193-.739m2.7-6.634 4.436-.185s.208.071.386 0c.252-.1.386-.185.386-.185h.772c-.193 0-.386-.185-.579-.185h-.193"/>
		<path d="m107.731 161.946.579 3.882.579 5.915v.74l-.579.555"/>
		<path d="m102.909 173.946 4.243-1.109h.386c0-.185.193-.185.386-.185s.386 0 .386-.185h.772s.249.131.386 0 .193-.185.386-.185h1.351c.193 0 .056-.054.193-.185s.386 0 .579 0h.386c.193 0 .193.185.386.185h.193c-.193 0-.386.185-.579.185l-.193.37v.185l-.193.185"/>
	</g>
	<g stroke-width="2" class="F B C">
		<path d="m121.627 157.56-1.294 3.697c-.491 1.357-1.109 1.479-1.294 1.664l-.185-.37m2.033-.728.924 5.915c.122 1.474.185 3.697 0 4.806l-.37-.924m5.546-14.127-2.033 4.621-.185.555.37-.37m1.663-1.338 3.512-1.664c.131-.131.185-.185.37-.185s.37-.185.37-.185h.74c.185 0 .185-.185.37-.185h.37c.185 0 .185-.185.37-.185h.925c.185 0 .185.185.185.185.185 0 .424-.131.555 0l.185.185.185.185c.131.131.131.424 0 .555s-.185 0-.185.185v.37c0 .185-.054.239-.185.37s-.27.128-.37.37c-.071.171-.185.185-.185.185 0 .185-.054.239-.185.37s0 .37-.185.37l-.185.185c-.131.131-.185 0-.185 0h-.185l-.185.185h-.185m-3.883.922c1.294 3.512 1.379 3.687 1.664 6.469.264 2.581-.739 5.176 0 5.176.185 0-.555-.555-.739-.555-.555 0-.739-.185-.924-.185l-.185-.185m-1.48-7.432-1.848 4.251c-.284.954-.555 1.664-.739 1.848l.739-1.294m7.208-5.549c2.033 2.957 2.218 2.957 2.218 3.697 0 1.109 0 2.033.185 2.403l-.739-.37m15.157-16.608-2.218 3.327-.37.37-.185.185h-.739m-1.109 1.432-.185 6.1c-.075 1.662 0 3.142-.185 3.512l-.37-.37"/>
		<path d="m144.177 160.492 3.697-1.479h.185c.185 0 .185-.185.37-.185s.128-.085.37-.185c.171-.071.37 0 .555-.185l.185-.185c.131-.131.37 0 .555 0H150.649v1.48c0 .185-.071.384 0 .555.1.242.185.555.185.739V164.376c0 .37.054.424.185.555s0 .555 0 .739v.739s.185.37.185.555v.925c0 .185-.131.424 0 .555s.185.185.185.37v.925c0 .185.185.37.185.37V174.733c0 .185 0 .37-.185.555v1.295c0 .185-.085.128-.185.37-.071.171 0 .37 0 .555v.74c-.185 0-.185.185-.185.37s-.185.37-.185.37c0 .185-.185.555 0 .555s0-.185 0-.37-.185-.185-.185-.185c-.185 0-.185-.185-.37-.185s-.185-.185-.37-.185-.199-.114-.37-.185c-.242-.1-.185-.185-.37-.185 0 0-.239.131-.37 0l-.185-.185h-.739m-2.958-13.874 3.512-2.033c.185 0 .185-.185.185-.185h.37c.185 0 .185-.185.37-.185v-.185c-.185.185-.37.185-.555.37h-.185m-4.437 6.469 3.512-1.848c.185 0 .185-.185.185-.185s.239.131.37 0 .054-.239.185-.37l.185-.185c.131-.131.185-.185.37-.185s.239.131.37 0-.131-.239 0-.37.239-.054.37-.185 0 0-.185 0l-.185.185v.185l-.185.185"/>
		<path d="m139.741 173.801 3.697-2.033s0-.185.185-.185h.37c.185 0 .185-.185.37-.185s.185-.185.37-.185.054-.054.185-.185.313-.085.555-.185c.171-.071.185 0 .37 0s.424.131.555 0 .128-.27.37-.37c.171-.071.37-.185.37-.185.185-.185.37-.185.555-.185h.185c.185-.185.522-.203.739-.555.097-.157.185-.185.37-.185s.37-.185.37-.185c.185 0 .199-.114.37-.185.242-.1.239-.239.37-.37s.384.071.555 0c.242-.1.153-.223.37-.37 2.331-1.578 4.114-2.296 4.991-2.588.175-.058.739-.185.924-.185l-1.109.924m-5.736 3.515c-2.218 3.142-2.114 3.424-3.327 4.621-1.028 1.014-1.74 1.792-2.588 2.403-.335.242-.555.37-.555.185l-.185-.739m21.813-16.163.37 3.882.555 11.091.185.555-.37-.555m-.001-7.643 3.327-2.218c.185 0 .37-.185.37-.185.185 0 0-.185 0-.185-.185 0-.37.185-.555.37l-.185.185v.37"/>
		<path d="m158.965 178.092 4.067-.924s.185-.185.37-.185.185-.185.37-.185c0 0 .199-.114.37-.185.242-.1.37-.185.37-.185.37 0 .424-.054.555-.185s.293.077.555-.185c.131-.131.185-.185.37-.185 0 0 0-.185.185-.185h.555s.128-.085.37-.185c.171-.071.239-.054.37-.185s.313-.085.555-.185c.171-.071.185 0 .37 0s.37-.185.555-.185h.74c.185 0 .185-.185.37-.185s.37 0 2.403-.37l1.479.185h-.555l-1.479.37m3.321-8.941 1.294 4.067-.185-1.109m-.739-3.196 3.697-1.664h.37c0 .185.185.185.185.185 0 .185.185.185.185.37s.054.239.185.37.131.424 0 .555l-.185.185v.555c0 .185-.185.185-.185.185 0 .185.071.384 0 .555-.1.242-.185.185-.185.37v.37c0 .185-.185.185-.185.37s-.185.185-.185.37-.054.239-.185.37-.185.185-.185.37c0 0-.239-.131-.37 0s-.185.185-.37.185h-.185c-.185 0-.185 0-.185-.185v-.555h.185v-.185m5.361-4.809 3.697-1.664s.239-.054.37-.185l.37-.37s0-.185.185-.185.424-.054.555-.185l.185-.185c.131-.131.239-.054.37-.185l.185-.185s.199-.114.37-.185c.242-.1.37-.37.37-.37.185-.185.384-.114.555-.185.242-.1.054-.239.185-.37s.313-.085.555-.185c.171-.071.239.131.37 0s.185-.185.37-.185h.74s.185 0 .185.185V162.812c0 .185-.054.239-.185.37s0 .37 0 .37c0 .185-.185.185-.185.37s-.054.239-.185.37-.185.37-.185.555v.185c0 .185-.054.239-.185.37s-.185.37-.185.37l-.37.37c-.131.131 0 .37 0 .37s-.114.014-.185.185c-.1.242-.239.239-.37.37l-.185.185c-.131.131 0 0 0 0h-.555m-2.406-4.995c.739 3.697.555 3.697.555 4.621v.37-.555"/>
		<path d="m184.104 168.669 3.697-1.479.185-.185c.131-.131.239-.054.37-.185l.185-.185c.131-.131.424.131.555 0l.185-.185s.239.131.37 0 .185-.185.37-.185c0 0 0-.185.185-.185s.424.131.555 0 .185 0 .185-.185-.185-.185-.185-.185h-1.109"/>
		<path d="M183.549 162.754c.185 3.882 0 4.05-.185 7.209-.173 2.952-.568 5.455.555 7.024.925 1.293 3.396.75 5.73-.185 1.151-.461 2.12-1.194 3.327-1.479.54-.127.555-.185.555-1.848l-.185-1.479m4.806-9.246 3.512-1.848h.555c.185 0 .185.185.185.185.185 0 .185.185.37.185l.185.185.185.185c0 .185.185.185.185.37 0 0 .185 0 .185.185s.185.185.185.37.185.185.185.185c0 .185.054.239.185.37s0 .37 0 .37v.555c0 .185-.054.054-.185.185s0 .37 0 .555.071.199 0 .37c-.1.242-.054.424-.185.555l-.185.185c-.131.131-.054.239-.185.37l-.185.185s.131.239 0 .37-.239.054-.37.185-.185.185-.37.185l-.185.185c-.131.131-.128.27-.37.37-.171.071-.185 0-.185.185 0 0-.085.128-.185.37-.071.171 0 .37 0 .37v.925c0 .185-.185.555 0 .555s.185-.185.185-.37v-.37h.185v.185m-1.11 6.092c0-.185 0-.37-.185-.37h.185c0 .185.185.185.185 0h-.185"/>
	</g>
	<g class="D E B C">
		<path d="m104.545 192.222 3.367-1.347c.119-.119.181-.104.337-.168a2.2 2.2 0 0 0 .337-.168h.673v.505c0 .168.168.168.168.168V192.054c0 .168.119.386 0 .505s-.168 0-.168.168v.674c0 .168-.049.218-.168.337s.064.181 0 .337c-.091.22-.168.337-.168.505 0 0-.168.168-.168.337s-.168.337-.168.337v.337c0 .168-.168.337-.168.337 0 .168-.049.218-.168.337s-.168-.168-.337-.168c0 0-.435.07-.673-.168-.119-.119-.505-.337-.673-.673v-.505"/>
		<path d="M107.239 189.024c-.168 3.367-.168 3.535-1.01 5.724l-.842 1.684-.168.168.168-.168m4.882-5.024 1.01 3.535v-.168"/>
		<path d="m110.438 191.547 3.367-1.347c.119-.119.168-.168.168 0l.168.168c.119.119.168.168.337.168v.674c0 .168-.049.218-.168.337s0 .337 0 .337c0 .168-.077.285-.168.505-.064.156 0 .168 0 .337s-.168.337-.168.505v.168c0 .168.119.386 0 .505s-.168 0-.168.168-.049.218-.168.337-.168.168-.337.168c0 0-.049-.119-.168 0s-.218.049-.337.168l-.168.168c0 .168-.168.168-.337.168s-.168.168-.337.168h-.168c-.168 0-.386-.119-.505 0s0 .168-.168.168v-.168m10.941-5.723-2.189 4.714-.337.505-.168-.505"/>
		<path d="m119.192 188.401 3.199 1.515c.091.22.049.386.168.505s.246-.052.337.168c.064.156.168.168.168.337s.168.168.168.168c0 .168.077.285.168.505.064.156.049.049.168.168s.077.285.168.505c.064.156.049.049.168.168s0 .337 0 .337c0 .168 0 .337.168.337 0 0 .077.117.168.337a3.52 3.52 0 0 0 .168.337c.168 0 .168.168.168.337s0 .337.168.337l.168.168c.119.119.218.049.337.168s-.119.218 0 .337.218-.119.337 0 .218.049.337.168 0 .168 0 .337h.168v-.168"/>
	</g>
	<g class="F B C D">
		<path d="m158.754 187.595 3.199-1.347c0 .168-.168.168-.168.337v.337l-.168.168c-.119.119 0 .337-.168.505l-.168.168c-.119.119.119.386 0 .505s-.168 0-.168.168c0 0 .119.218 0 .337s-.168.168 0 .168h.337s.218-.119.337 0-.119.218 0 .337.168.168.168.337c0 0 .168 0 .168.168s.168.168.168.337-.119.218 0 .337.168.168.168.337v1.684c0 .168.119.386 0 .505s-.337.168-.168.168-.168-.168-.168-.168c-.168 0-.218-.049-.337-.168l-.168-.168c-.119-.119-.168-.168-.337-.168s-.168-.168-.168-.168h-.337c-.168 0-.337 0-.337-.168m-.506-4.043.168 3.704.168 4.545c.077.328 0 .505 0 .673l.168-.337m4.209-10.873c.168 0 .386.049.505.168s.193.08.337.168c.32.198.246.453.337.673.064.156 0 .337 0 .505l.168.168m-2.693 1.012 3.535-1.178.337-.337s.168-.168.337-.168.337-.168.337-.168h.337c.168 0-.049-.119-.168 0s-.168.505-.168.673l-.168.505v.168m-2.528.505c-.673 3.367-.577 3.57-1.347 5.556-.6 1.546-.842 1.684-.842 1.515l.337-.168"/>
		<path d="m164.141 191.599 3.199-1.852h.505s-.119.218 0 .337l.168.168v2.863c0 .168-.049.218-.168.337s0 .168 0 .337V195.473c0 .168-.168.168-.168.168 0 .168.119.386 0 .505l-.168.168c0 .168-.168.168-.168.337s-.168.168-.168.337c-.168 0-.168-.168-.337-.168s-.218-.049-.337-.168c-.238-.238-.505 0-.673 0h-.337l-.168.168h-.168m-29.806-14.257-3.03 3.199v-.168m-.541.504.168 5.892c-.084 1.858-.505 3.535-.505 4.882v.505-.842"/>
		<path d="m131.439 186.669 5.051-1.684c.993-.385 1.25.17 1.178 2.02l-.505 6.566-.337 2.862c0 .505.052 1.424-.168 1.515-.156.064-.337-.168-.505-.168m-4.537-7.61 3.367-1.347c.738-.978 2.02-.505 2.189-.505h.168l-.673.337m-5.169 4.882 4.545-.842c.666-.194 1.01-.168 1.178-.337l-.505.673"/>
		<path d="M130.657 197.915c3.367-.505 3.523-.421 4.377-.337 1.005.1 1.684 0 1.852 0l.168-.337m6.717-9.764 3.367-1.347c.119-.119.337 0 .337 0h.337c.168 0 .456-.049.337-.168s-.337 0-.505.168h-.168v.168m-3.032 3.367c3.03-1.347 3.199-1.347 3.03-1.515 0 0-.168.168-.337.168l-.168.168h-.168m-3.703 4.21 3.535-1.178.168-.168c0-.168.168-.168.337-.168s.168-.168.337-.168c0 0 0-.168.168-.168h.337c.168 0 .168 0 .168-.168h-.337c-.168 0-.168-.168-.168-.337v-.168"/>
		<path d="m145.623 184.278.505 3.704.673 9.091-.337.673m-1.009-5.503c-1.347 3.199-1.347 3.199-2.02 4.04l-.168.168.842-.673m2.524-3.238 3.03 1.852v-1.01m-.168-5.724 3.367-1.347c.168 0 .168-.168.337-.168s.337 0 .337-.168h-.168c-.168 0-.337.168-.505.337v.337m-3.536 5.049 3.199-1.515c.22-.091.337-.168.337-.337l.168-.168c.119-.119.168 0 .337 0s.168-.168.168-.168c.168 0 .168-.168.337-.168s.337 0 .337-.168-.337.168-.505.168v.168h-.168v.168"/>
		<path d="m149.495 185.469 1.347 3.535c0 3.199-.505 5.892-.842 7.407l-.168.337.505-.673m1.683-11.241.842 3.704.673 6.061c0 .842.168 1.515.168 1.515l.337-.337v-1.684m20.021-5.452 3.812-.673h.953c.191 0 .381 0 .572-.168 0 0 .132-.077.381-.168a.68.68 0 0 1 .381 0c.191 0 .246-.049.381-.168s.381 0 .381 0c.191 0 .516-.049.381-.168s-.246.049-.381.168c-.27.238-.572.168-.762.168"/>
		<path d="m178.254 183.428-.572 3.704c-.48 3.445-2.287 5.892-3.621 7.744l-.953 1.01-.381.168.572-.505m4.193-6.326c-.191 3.535-.65 3.745-.191 5.724.292 1.256 1.288 2.41 2.859 2.357 1.807-.061 2.478-.673 2.668-.842l-.191-.505-.191-1.178v-.168"/>
		<path d="M180.732 190.894c-1.525 3.03-1.423 3.259-2.478 4.545-.873 1.065-1.144 1.178-1.334 1.684l-.381.337-.191.337.191-.337m4.193-13.946c0 .168.087.285.191.505.073.156.191.168.191.337s.246.218.381.337.191.337.191.505l.191.168v.168m11.221-1.42c-1.515 3.03-1.684 3.199-3.704 5.556l-1.347.842.842-1.01M192.087 186.404l3.199 1.515c.168 0 .168.168.337.168s.049.049.168.168.218.049.337.168.337 0 .337 0l.168.168c.119.119.337 0 .505 0 0 0 .168.168.337.168h.337-.505v-.168m-7.071 1.18 3.535-1.347h.168-.336l-.337.168m-5.724 5.051 3.535-1.178h.674s.181.064.337 0a2.2 2.2 0 0 0 .337-.168c.168-.168.337-.168.505-.168s.168-.168.337-.168.168-.168.337-.168h.168c.168 0 .35.064.505 0 .22-.091.168-.168.337-.168s.218-.049.337-.168.168 0 .337 0 .386.119.505 0-.168-.168-.337-.168h-.337"/>
		<path d="M191.582 192.296c-1.852 2.862-2.03 2.806-2.189 2.862-1.017.357-.315.914 1.01.673 1.415-.257 2.694-.842 3.199-1.347h.337l.168-.168-.337-.673"/>
		<path d="m192.761 193.636 3.03 1.852v-.505"/>
	</g>
	<g class="E B C D">
		<path d="m202.862 185.583-.673 3.367c-.17 1.378-.505 1.684-.505 1.684l-.337-.505m-.842 4.627c.168 0 .414-.052.505.168.064.156.119.218 0 .337s-.168 0-.168-.168v-.168m-52.526 9.911 3.199-.505c.168 0 .168-.168.337-.168s.181.064.337 0a2.2 2.2 0 0 0 .337-.168c.168 0 .168-.168.337-.168h.505-.505c-.337 0-.337 0-.673.168l-.168.168v.168"/>
		<path d="m151.178 202.143-2.357 5.892-1.347 2.189-.337.168-.168-.168"/>
		<path d="m147.811 205.644.673 3.367V212.546l-.168-.505.168-.337m.338-2.659 3.199-1.01h.337c.168 0 .218.119.337 0l.168-.168h-.168l-.168-.337"/>
		<path d="m151.178 205.341.505 3.367v3.199h-.168"/>
		<path d="m148.316 212.636 3.199-.842h.337c.168 0 .168-.168.168-.168h1.516s-.049.119-.168 0 0-.337 0-.505v-.337m4.208-6.229 3.199-.673s.013-.064.168 0c.22.091.168.337.168.505a.52.52 0 0 0 .168.337v.337c0 .168-.119.218 0 .337s.168.168.168.337v2.527c0 .168.119.218 0 .337l-.168.168v1.179c0 .168-.168.168-.168.337v1.01c0 .168.119.218 0 .337s-.168.168-.168.337l-.168.168c-.119.119 0 .337 0 .337v.337h-.505c-.168 0-.337-.168-.505-.168v-.168h-.168m-2.021-5.056 2.862-1.347h-.336m-2.021 3.872 2.694-1.515v-.168h.168v-.168"/>
		<path d="m158.754 204.723.505 4.545c0 1.178-.337 2.189-.842 3.199l-.168.337.505-.842m3.704-7.771c3.03-1.178 3.03-1.01 3.03-.842s-.168.168-.168.168v.505s-.168.168-.168.337v.168c0 .168-.168.168-.168.337 0 0-.168 0-.168.168s0 .337-.168.337c0 0 .168 0 .168.168 0 0 0 .168.168.168s.168 0 .168.168l.168.168.168.168c.119.119.049.218.168.337s0 .168 0 .337v.168c0 .168 0 .337.168.505V209.409l-.168.168c-.119.119 0 .168 0 .337v.337s-.077.117-.168.337c-.064.156-.168.168-.337.168h-.505c-.168 0-.337-.168-.337-.168-.168 0-.218-.049-.337-.168s-.168 0-.168-.168v-.168h.168m-.672-5.893c.505 3.03.421 3.191.337 4.545l-.168 2.862v.505-.168l.168-.842m-24.58-5.752 3.199-.842c.168 0 .168-.168.337-.168s.337-.168.337-.168H143.772v-.168c0 .168-.218.049-.337.168s-.168.505-.168.673h.168m-1.179.169c.168 3.199.084 3.362 0 5.387-.056 1.346 0 1.852.168 2.357v-.673m0-4.328c.168 0 .337.168.505.168h.674c.168 0 .173.039.337 0 .366-.086.337-.168.505-.168h.168m-4.882-.505v5.051"/>
		<path d="M137.879 212.63c3.03-.505 3.199-.337 3.199-.337.168 0 .386.119.505 0s0-.168.168-.168h1.853c.168 0 .218.119.337 0s.168-.168.337-.168h-.505l-.168-.168v-.168m30.301-5.27 3.367-.505.168.168c.119.119.168.168.168.337 0 0 .168 0 .168.168v1.01c0 .168.119.218 0 .337l-.168.168c0 .168.119.386 0 .505s-.168.168-.168.337-.168.168-.168.337v.168c0 .168-.049.386-.168.505s-.246.117-.337.337c-.064.156 0 .168 0 .168 0 .168-.168.337-.168.337-.168 0-.168.168-.168.337 0 0-.168-.168-.505-.337l-.505-.505v-.168l-.168-.168v-.337"/>
		<path d="m175.926 203.994-.842 3.199-1.515 3.367-.337-.505m-2.357-5.722c.168 0 .181-.064.337 0 .22.091.168.168.337.337l.168.168v.168l.168.168m-2.693 3.031 2.694-1.515v.505c0 .168 0 .337-.168.337 0 0 .119.218 0 .337l-.168.168c-.168 0-.168.168-.168.337s.119.218 0 .337l-.168.168c0 .168-.168.168-.168.337s.049.049.168.168l.168.168h.505l.168.168.168.168v.337c0 .168-.049.218-.168.337l-.168.168c-.119.119 0 .337 0 .337 0 .168-.168.168-.168.168 0 .168-.168.168-.337.337l-.168.168c-.119.119-.049.218-.168.337s-.168 0-.337 0-.168.168-.168.168c-.168 0-.287.119-.168 0l.168-.168c.119-.119.337 0 .505 0h1.348l.168.168.168.168c.119.119.337 0 .505.168h.505c0 .168.168.168.337.168 0 0 0 .168.168.168h.337s.181-.064.337 0c.22.091.168.168.337.168s.049.049.168.168.337 0 .505 0h.337c.168 0 .117-.077.337-.168.156-.064.168 0 .337 0H177.782h-.168l-.168.168.168-.337m6.393-9.09c-1.347 2.862-1.347 3.03-2.694 4.714v.168l.337-.337"/>
		<path d="m183.333 205.135 3.367.842.168.168c.119.119.337 0 .337 0h.337c.168 0 .218-.119.337 0s.287.119.168 0-.168 0-.337 0h-.337l-.168.337h-.168m-4.545.673c2.862-1.01 2.914-1.087 2.694-1.178-.156-.064-.168.168-.337.168m-3.873 4.208 3.03-1.178c.168 0 .386.119.505 0s0-.168.168-.168h.337c.168 0 .337 0 .337-.168h1.179-.168c-.168 0-.168 0-.337.168h-.168v.168m-3.199.673c-1.347 2.862-1.684 2.694-1.684 2.862 0 .505 1.689-.322 3.03-.842a4.9 4.9 0 0 1 1.852-.337v-.673"/>
		<path d="m184.343 210.705 2.862 1.683v-.337s0-.337.168-.673l.168-.337m6.062-6.373 3.367-.673h.168H196.296v.168m-.673.336-2.189 2.694-.337-.337m-2.215.561.337 3.872v.674l.168-1.515"/>
		<path d="m190.882 207.497 3.199-.673c2.694-.842 4.291-1.57 4.714-.842.681 1.174-.168 3.199-1.178 5.387l-.842 1.178v-.168l-.505-.673m-2.828-4.04-.505 3.704h-.337m3.199-4.45-.505 4.209-.168.842-.505-.337"/>
		<path d="M193.105 208.831v-.168h2.021m-2.357 1.346H194.453m-3.536 1.179H191.928c.168 0 .337.168.337.168H193.107c.168 0 .337.168.505.168h.337s0 .168.168.168h1.852m6.732-7.024v4.376l.337-.505m-.337 2.838c-.168 0-.456.049-.337.168s.208.026.337.337c.091.22 0 .168 0 0l-.168-.168v-.168"/>
	</g>
</svg>